<svg xmlns="http://www.w3.org/2000/svg" version="1.1" xmlns:xlink="http://www.w3.org/1999/xlink" width="40" height="40" x="0" y="0" viewBox="0 0 512 512" style="enable-background:new 0 0 512 512" xml:space="preserve" class=""><g><path d="M267.555 54.396c-97.562-6.712-175.617 70.948-175.617 163.667 0 55.242 27.534 106.448 73.654 136.977 15.626 10.346 25.462 26.642 27.189 44.536h-7.822a5.334 5.334 0 1 0 0 10.668h8.18v44.584c0 16.552 13.466 30.018 30.018 30.018h2.577C227.382 500.09 240.323 512 256 512s28.617-11.91 30.267-27.156h2.577c16.552 0 30.018-13.466 30.018-30.018v-44.584h8.18a5.334 5.334 0 1 0 0-10.668h-7.851c1.593-17.894 11.041-34.009 26.109-43.807 49.268-32.041 77.156-86.255 74.604-145.024C416.336 128.677 349.416 60 267.555 54.396zm42.253 232.208c7.645 38.791.981 75.342-39.888 76.655 12.61-30.61 33.699-46.142 33.995-46.353a5.338 5.338 0 0 0 1.248-7.435 5.335 5.335 0 0 0-7.427-1.261c-1.292.916-23.056 16.805-36.744 48.403-15.447-34.908 12.909-57.396 48.816-70.009zM256 501.333c-9.783 0-17.872-7.151-19.453-16.489h38.906c-1.581 9.338-9.67 16.489-19.453 16.489zm32.843-27.156h-65.688c-10.67 0-19.351-8.683-19.351-19.351V410.51h104.391v44.315c0 10.67-8.682 19.352-19.352 19.352zm50.639-127.352c-18.047 11.737-29.38 31.092-31.056 52.75h-47.187c.79-9.32 2.472-17.891 4.835-25.637 51.938.937 66.388-45.692 52.791-95.673a5.328 5.328 0 0 0-6.773-3.677c-67.976 21.768-77.43 62.868-56.006 95.315-1.786 5.777-3.216 11.992-4.262 18.603-8.364-15.798-20.586-44.906-22.645-82.689 80.603-16.473 65.819-102.887 24.999-170.904a5.338 5.338 0 0 0-3.76-2.523 5.368 5.368 0 0 0-4.344 1.274c-82.626 72.981-72.553 138.69-27.526 171.609 2.291 45.465 18.605 79.342 27.262 94.302h-42.231c-1.687-21.373-13.41-41.057-32.102-53.432-43.125-28.544-68.873-76.427-68.873-128.081 0-87.041 73.246-159.216 164.221-153.026 76.529 5.24 139.086 69.447 142.421 146.172 2.39 54.959-23.691 105.657-69.764 135.617zm-91.263-200.739c32.858 60.755 49.191 133.589-19.327 148.909-.019-26.68 5.214-57.104 20.182-89.878a5.332 5.332 0 0 0-2.636-7.067 5.327 5.327 0 0 0-7.067 2.636c-14.93 32.689-20.629 63.237-21.092 90.315-46.394-44.667-18.255-100.63 29.94-144.915z"  opacity="1" data-original="#000000"></path><path d="m219.665 441.487 70.573-11.464a5.331 5.331 0 0 0 4.408-6.12 5.325 5.325 0 0 0-6.118-4.411l-70.573 11.464a5.331 5.331 0 0 0-4.408 6.12 5.334 5.334 0 0 0 6.118 4.411zM292.335 442.934 221.763 454.4a5.328 5.328 0 0 0-4.408 6.117c.486 2.996 3.33 4.886 6.117 4.408l70.573-11.466a5.328 5.328 0 0 0 4.408-6.117c-.472-2.909-3.211-4.91-6.118-4.408zM256 25.305a5.334 5.334 0 0 0 5.334-5.334V5.334a5.334 5.334 0 1 0-10.668 0v14.638A5.334 5.334 0 0 0 256 25.305zM175.635 37.018a5.33 5.33 0 0 0 6.968 2.885 5.332 5.332 0 0 0 2.885-6.968l-5.602-13.523a5.327 5.327 0 0 0-6.968-2.885 5.332 5.332 0 0 0-2.885 6.968zM112.839 81.479a5.332 5.332 0 1 0 7.542-7.542l-10.351-10.35a5.332 5.332 0 1 0-7.542 7.542zM75.917 136.734l-13.523-5.601a5.333 5.333 0 0 0-4.083 9.853l13.523 5.601a5.33 5.33 0 0 0 6.968-2.885 5.333 5.333 0 0 0-2.885-6.968zM453.69 293.213l-13.523-5.602a5.328 5.328 0 0 0-6.968 2.885 5.333 5.333 0 0 0 2.885 6.968l13.523 5.602a5.33 5.33 0 0 0 6.968-2.885 5.333 5.333 0 0 0-2.885-6.968zM64.204 217.102a5.334 5.334 0 0 0-5.334-5.334H44.232a5.334 5.334 0 1 0 0 10.668H58.87a5.336 5.336 0 0 0 5.334-5.334zM467.768 211.768H453.13a5.334 5.334 0 1 0 0 10.668h14.638a5.334 5.334 0 1 0 0-10.668zM71.834 287.612l-13.523 5.602a5.332 5.332 0 0 0-2.885 6.968 5.33 5.33 0 0 0 6.968 2.885l13.523-5.602a5.332 5.332 0 0 0 2.885-6.968 5.329 5.329 0 0 0-6.968-2.885zM440.166 146.588l13.523-5.602a5.332 5.332 0 1 0-4.083-9.853l-13.523 5.602a5.332 5.332 0 0 0-2.885 6.968 5.33 5.33 0 0 0 6.968 2.885zM399.161 81.479l10.351-10.349a5.332 5.332 0 1 0-7.542-7.542l-10.351 10.349a5.332 5.332 0 0 0 0 7.542 5.33 5.33 0 0 0 7.542 0zM329.396 39.903a5.33 5.33 0 0 0 6.968-2.885l5.602-13.523a5.333 5.333 0 0 0-2.885-6.968 5.328 5.328 0 0 0-6.968 2.885l-5.602 13.523a5.332 5.332 0 0 0 2.885 6.968z"  opacity="1" data-original="#000000"></path></g></svg>