<svg xmlns="http://www.w3.org/2000/svg" version="1.1" xmlns:xlink="http://www.w3.org/1999/xlink" width="40" height="40" x="0" y="0" viewBox="0 0 512 512" style="enable-background:new 0 0 512 512" xml:space="preserve" class=""><g><path d="M489.5 467h-35.265c-.227-14.009-9.94-25.752-22.987-29.064V316.513c0-.284-.019-.563-.049-.838l39.591-39.591a7.5 7.5 0 0 0-10.606-10.607L334.997 390.663c-1.417 1.416-3.3 2.196-5.303 2.196s-3.886-.78-5.303-2.197c-1.417-1.416-2.197-3.3-2.197-5.303s.78-3.887 2.197-5.303L484.197 220.25c2.925-2.924 7.683-2.923 10.606-.001 2.924 2.925 2.924 7.684 0 10.607l-11.999 11.999a7.5 7.5 0 0 0 10.606 10.607l12-12c8.772-8.772 8.772-23.047 0-31.82-8.772-8.771-23.047-8.771-31.819 0L313.784 369.449c-4.25 4.25-6.59 9.9-6.59 15.91s2.341 11.66 6.59 15.909c4.25 4.25 9.9 6.591 15.91 6.591s11.66-2.341 15.91-6.59l70.645-70.644v107.31c-13.047 3.312-22.76 15.055-22.987 29.064h-92.623c-.227-14.009-9.94-25.753-22.987-29.064V316.513a7.71 7.71 0 0 0-.049-.837l74.212-74.211v-.001c8.772-8.772 8.772-23.047 0-31.82-8.773-8.771-23.047-8.771-31.82 0L160.187 369.449c-4.25 4.25-6.59 9.9-6.59 15.91s2.341 11.66 6.59 15.909c4.25 4.25 9.9 6.591 15.91 6.591s11.661-2.341 15.91-6.59l70.644-70.644v107.31c-13.047 3.312-22.76 15.055-22.987 29.064h-92.622c-.227-14.009-9.94-25.753-22.987-29.064V316.513c0-.284-.019-.563-.05-.838l74.212-74.212c8.772-8.772 8.772-23.047 0-31.82-8.772-8.771-23.047-8.771-31.819 0L46.917 329.122a7.5 7.5 0 0 0 10.606 10.607l119.48-119.479c2.925-2.924 7.683-2.923 10.606-.001 2.924 2.925 2.924 7.684 0 10.607L27.803 390.663c-1.417 1.416-3.3 2.196-5.303 2.196s-3.886-.78-5.303-2.197c-1.417-1.416-2.197-3.3-2.197-5.303s.78-3.887 2.197-5.303l17.705-17.705a7.5 7.5 0 0 0-10.606-10.607L6.59 369.449c-4.25 4.25-6.59 9.9-6.59 15.91s2.341 11.66 6.59 15.909c4.25 4.25 9.9 6.591 15.91 6.591s11.66-2.341 15.91-6.59l70.645-70.645v107.311c-13.047 3.312-22.76 15.055-22.987 29.064H22.5C10.093 467 0 477.094 0 489.5S10.093 512 22.5 512h467c12.407 0 22.5-10.094 22.5-22.5S501.907 467 489.5 467zm-308.1-76.337c-1.417 1.416-3.3 2.196-5.303 2.196s-3.886-.78-5.303-2.197c-1.417-1.416-2.197-3.3-2.197-5.303s.78-3.887 2.197-5.303L330.6 220.25a7.473 7.473 0 0 1 5.304-2.193 7.48 7.48 0 0 1 5.303 2.192c2.924 2.925 2.924 7.684 0 10.607zM423.748 452c8.379 0 15.227 6.684 15.492 15h-30.984c.265-8.316 7.113-15 15.492-15zm-153.597 0c8.379 0 15.227 6.684 15.492 15h-30.984c.265-8.316 7.112-15 15.492-15zm-153.597 0c8.379 0 15.227 6.684 15.492 15h-30.984c.265-8.316 7.113-15 15.492-15zM489.5 497h-467c-4.136 0-7.5-3.364-7.5-7.5s3.364-7.5 7.5-7.5h467c4.136 0 7.5 3.364 7.5 7.5s-3.364 7.5-7.5 7.5zM107.5 161c29.5 0 53.5-24 53.5-53.5S137 54 107.5 54c-7.829 0-15.377 1.655-22.435 4.92a7.5 7.5 0 1 0 6.297 13.613C96.432 70.188 101.861 69 107.5 69c21.229 0 38.5 17.271 38.5 38.5S128.729 146 107.5 146 69 128.729 69 107.5c0-5.774 1.245-11.323 3.699-16.493a7.5 7.5 0 1 0-13.55-6.433C55.732 91.769 54 99.482 54 107.5 54 137 78 161 107.5 161zM107.5 27a7.5 7.5 0 0 0 7.5-7.5v-12c0-4.143-3.358-7.5-7.5-7.5S100 3.357 100 7.5v12a7.5 7.5 0 0 0 7.5 7.5zM100 195.5v12c0 4.143 3.358 7.5 7.5 7.5s7.5-3.357 7.5-7.5v-12c0-4.143-3.358-7.5-7.5-7.5s-7.5 3.357-7.5 7.5zM169.726 52.774a7.474 7.474 0 0 0 5.303-2.197l8.485-8.485a7.5 7.5 0 1 0-10.606-10.605l-8.485 8.485a7.5 7.5 0 0 0 5.303 12.802zM36.79 185.711a7.474 7.474 0 0 0 5.303-2.197l8.485-8.485a7.5 7.5 0 1 0-10.606-10.605l-8.485 8.485a7.5 7.5 0 0 0 5.303 12.802zM195.5 115h12c4.142 0 7.5-3.357 7.5-7.5s-3.358-7.5-7.5-7.5h-12c-4.142 0-7.5 3.357-7.5 7.5s3.358 7.5 7.5 7.5zM7.5 115h12c4.142 0 7.5-3.357 7.5-7.5s-3.358-7.5-7.5-7.5h-12c-4.142 0-7.5 3.357-7.5 7.5s3.358 7.5 7.5 7.5zM172.907 183.514c1.464 1.465 3.384 2.197 5.303 2.197s3.839-.732 5.303-2.196a7.5 7.5 0 0 0 0-10.606l-8.485-8.485a7.5 7.5 0 1 0-10.606 10.605zM39.971 50.577c1.464 1.465 3.384 2.197 5.303 2.197s3.839-.732 5.303-2.196a7.5 7.5 0 0 0 0-10.606l-8.485-8.485a7.5 7.5 0 1 0-10.606 10.605z"  opacity="1" data-original="#000000"></path></g></svg>