<svg xmlns="http://www.w3.org/2000/svg" viewBox="0 0 496 496" xmlns:v="https://vecta.io/nano"><path d="M172.731 45.386l15.308 36.957-14.782 6.123-15.308-36.957zM51.483 157.938l36.957 15.308-6.123 14.782L45.36 172.72zm-6.071 165.38l36.957-15.308 6.123 14.782L51.535 338.1zM172.7 450.662l-14.781-6.125 15.312-36.951 14.781 6.125zm150.601-.097l-15.308-36.957 14.782-6.123 15.308 36.957zm121.198-112.512l-36.957-15.308 6.123-14.782 36.957 15.308zm6.085-165.304l-36.957 15.308-6.123-14.782 36.957-15.308zM323.259 45.351l14.781 6.125-15.312 36.951-14.781-6.125zM248 88c-88.224 0-160 71.776-160 160s71.776 160 160 160 160-71.776 160-160S336.224 88 248 88zm0 304c-79.4 0-144-64.6-144-144s64.6-144 144-144 144 64.6 144 144-64.6 144-144 144zM240 0h16v72h-16zM78.298 66.982l50.91 50.91-11.314 11.314-50.91-50.91zM0 240h72v16H0zm78.291 189.03l-11.314-11.314 50.91-50.91 11.314 11.314zM240 424h16v72h-16zm177.679 5.033l-50.91-50.91 11.314-11.314 50.91 50.91zM424 240h72v16h-72zm-6.292-173.025l11.314 11.314-50.91 50.91-11.314-11.314z"/></svg>