<svg xmlns="http://www.w3.org/2000/svg" version="1.1" xmlns:xlink="http://www.w3.org/1999/xlink" width="40" height="40" x="0" y="0" viewBox="0 0 511.788 511.788" style="enable-background:new 0 0 512 512" xml:space="preserve" class=""><g><path d="M219.566 83.745c1.24 0 2.498-.308 3.657-.957l20.25-11.339c8.189-4.585 1.234-17.882-7.328-13.088L215.895 69.7c-6.469 3.623-3.755 14.045 3.671 14.045zM53.465 169.252a7.5 7.5 0 0 0-10.208-2.88l-20.25 11.339c-8.197 4.589-1.214 17.874 7.328 13.088l20.25-11.339a7.5 7.5 0 0 0 2.88-10.208zM78.204 42.242c4.616 8.188 17.882 1.175 13.066-7.367l-11.378-20.18c-4.609-8.176-17.885-1.181-13.066 7.367zM157.948 36.794c3.665 1.032 8.211-1.492 9.252-5.188l6.273-22.287c2.542-9.034-11.779-13.512-14.439-4.064l-6.273 22.287a7.5 7.5 0 0 0 5.187 9.252zM37.91 105.434c8.375 0 10.042-12.481 2.016-14.725l-22.364-6.252c-9.042-2.531-13.488 11.804-4.04 14.446l22.364 6.252a7.51 7.51 0 0 0 2.024.279zM226.601 243.052v15.37h-6.936c-16.907 0-30.662 13.755-30.662 30.662v133.523c.374 17.076 13.704 30.319 30.753 30.662h17.256c13.116 2.777 10.572-19.521-1.142-15h-16.114c-8.527 0-15.753-7.07-15.753-15.662V393.32h112.701v29.287c0 8.56-7.198 15.662-15.754 15.662h-19.674c-11.714-4.521-14.258 17.777-1.142 15h20.816c17.05-.37 30.407-13.587 30.754-30.662V289.084c0-16.907-13.755-30.662-30.662-30.662h-6.937v-15.37c0-10.315-8.393-18.708-18.708-18.708h-30.089c-10.314 0-18.707 8.393-18.707 18.708zm-22.597 135.269v-44.949h112.701v44.949zm112.701-89.237v29.287H204.004v-29.287c0-8.636 7.026-15.662 15.662-15.662h81.377c8.636 0 15.662 7.027 15.662 15.662zm-37.599-46.032v15.37h-37.505v-15.37a3.712 3.712 0 0 1 3.708-3.708h30.089a3.712 3.712 0 0 1 3.708 3.708z"  opacity="1" data-original="#000000"></path><path d="M416.432 132.512h50.628a7.5 7.5 0 0 0 7.057-4.96l28.981-80.504c1.732-4.811-1.944-10.04-7.057-10.04H373.725a7.5 7.5 0 0 0-7.057 4.96l-28.694 79.707c-1.767 4.907 2.611 10.837 7.761 10.837h55.697v40.692l-43.141-26.339c-8.013-4.889-16.192 7.69-7.816 12.803l117.443 71.702c15.975 9.854.617 34.912-15.783 24.799l-109.093-66.553-78.752-48.545a7.506 7.506 0 0 0-7.871 0l-78.749 48.544-109.126 66.573c-16.079 9.918-31.98-14.808-15.782-24.8L254.94 107.951c3.807-2.126 7.021-2.125 10.829 0l43.397 26.495c8.011 4.892 16.192-7.69 7.816-12.803L273.47 95.079a9.051 9.051 0 0 0-.212-.125c-8.392-4.751-17.414-4.753-25.808 0a9.051 9.051 0 0 0-.212.125l-44.51 27.175a69.307 69.307 0 0 0-8.872-31.641c-18.781-33.312-61.251-45.186-94.669-26.473-16.217 9.081-27.905 23.916-32.914 41.773-4.997 17.816-2.741 36.509 6.352 52.635 6.418 11.384 15.733 20.527 26.943 26.688l-54.652 33.367c-32.738 20.195-1.054 70.425 31.471 50.371l5.986-3.652v238.966c0 4.143 3.357 7.5 7.5 7.5h340.963c4.143 0 7.5-3.357 7.5-7.5V265.322l5.956 3.634c32.716 20.178 64.051-30.275 31.471-50.37l-59.377-36.251c.029-.267.046-.538.046-.813zm-13.841-32.791 17.177-47.713h24.83l-8.607 23.907-14.976 41.597h-24.829zm59.197 17.791h-24.83l8.607-23.907 14.976-41.597h24.829zm-82.792-65.504h24.83l-6.405 17.791-17.177 47.713h-24.829zM85.691 151.181c-7.121-12.629-8.889-27.267-4.976-41.217 3.925-13.991 13.087-25.617 25.8-32.736 26.224-14.684 59.543-5.375 74.274 20.752a54.235 54.235 0 0 1 6.518 33.688l-72.258 44.116c-12.477-4.382-22.827-13.019-29.358-24.603zm337.645 105.552v240.055H97.373V256.733l88.27-54.412 74.711-45.579 74.716 45.582z"  opacity="1" data-original="#000000"></path></g></svg>