<svg xmlns="http://www.w3.org/2000/svg" version="1.1" xmlns:xlink="http://www.w3.org/1999/xlink" width="40" height="40" x="0" y="0" viewBox="0 0 128 128" style="enable-background:new 0 0 512 512" xml:space="preserve" class=""><g><path d="M104.37 78.18V56.212L123 25.091a1.75 1.75 0 0 0-1.5-2.649H61.308a1.751 1.751 0 0 0-1.5.852l-34.423 57.5a1.749 1.749 0 0 0 1.5 2.648h60.192a1.749 1.749 0 0 0 1.5-.851l1.623-2.716c.055.013.11.021.166.029v21.716H64a1.75 1.75 0 0 0-1.75 1.75v10.5h-7.71v-1.37a1.75 1.75 0 0 0-1.75-1.75h-4.252V97.5a1.75 1.75 0 0 0-1.75-1.75H42.57V91.5a1.75 1.75 0 0 0-1.75-1.75h-6a1.75 1.75 0 0 0-1.75 1.75v4.25H20.7V91.5a1.749 1.749 0 0 0-1.75-1.75h-6a1.75 1.75 0 0 0-1.75 1.75v4.25H6.98a1.75 1.75 0 0 0-1.75 1.75v24a1.75 1.75 0 0 0 1.75 1.75h39.808a1.75 1.75 0 0 0 1.75-1.75v-1.25h4.252a1.75 1.75 0 0 0 1.75-1.75v-1.13H64a1.75 1.75 0 0 0 1.75-1.75v-10.5h24.62v2.63h-6.224a1.749 1.749 0 0 0-1.75 1.75v4.25h-5.684a1.75 1.75 0 0 0-1.75 1.75v6a1.75 1.75 0 0 0 1.75 1.75h39.808a1.75 1.75 0 0 0 1.75-1.75v-6a1.75 1.75 0 0 0-1.75-1.75h-5.685v-4.25a1.749 1.749 0 0 0-1.75-1.75h-6.215V79.9a1.744 1.744 0 0 0 1.5-1.72Zm-67.8 15.07h2.5v2.5h-2.5Zm-21.87 0h2.5v2.5h-2.5Zm30.338 26.5H8.73v-20.5h36.308Zm6-3h-2.5v-2.5h2.5Zm49.83-40.32h-8.5v-.173l8.5-14.2Zm-50.992 3.512 4.789-8H70.49l-4.789 8Zm6.884-11.5 4.79-8h15.825l-4.79 8Zm-15.114-8h15.825l-4.789 8H36.856Zm6.884-11.5h15.826l-4.79 8H43.741Zm6.885-11.5H71.24l-4.789 8H50.626Zm42.614-11.5-4.79 8H77.414l4.79-8Zm-6.885 11.5-4.789 8H70.53l4.789-8Zm15.6 8H90.433l4.79-8h16.305Zm-6.885 11.5h-16.3l4.789-8h16.305Zm-20.384 0h-15.83l4.789-8h15.825Zm1.983 3.5h16.301l-4.79 8h-16.3Zm32.17-26.5h-16.31l4.789-8h16.306Zm-51.323-8h15.82l-4.789 8H57.51Zm-27.539 46h15.82l-4.789 8H29.972Zm51.323 8h-16.31l4.79-8h16.3Zm28.681 39.808H78.462v-2.5h36.308Zm-7.435-6H85.9v-2.5h21.439Zm-13.465-6V79.93h5.5v27.82ZM6.5 24.75h2.874a13.651 13.651 0 0 0 2.757 6.639L10.09 33.43a1.754 1.754 0 0 0 2.48 2.48l2.041-2.041a13.651 13.651 0 0 0 6.639 2.757V39.5a1.75 1.75 0 0 0 3.5 0v-2.874a13.651 13.651 0 0 0 6.639-2.757l2.041 2.041a1.754 1.754 0 1 0 2.48-2.48l-2.041-2.041a13.651 13.651 0 0 0 2.757-6.639H39.5a1.75 1.75 0 0 0 0-3.5h-2.874a13.651 13.651 0 0 0-2.757-6.639l2.041-2.041a1.754 1.754 0 1 0-2.48-2.48l-2.041 2.04a13.66 13.66 0 0 0-6.639-2.756V6.5a1.75 1.75 0 0 0-3.5 0v2.874a13.66 13.66 0 0 0-6.639 2.756l-2.041-2.04a1.754 1.754 0 0 0-2.48 2.48l2.041 2.041a13.651 13.651 0 0 0-2.757 6.639H6.5a1.75 1.75 0 0 0 0 3.5Zm16.5-12A10.25 10.25 0 1 1 12.75 23 10.261 10.261 0 0 1 23 12.75Z"  opacity="1" data-original="#000000"></path><path d="M12.98 106a1.75 1.75 0 0 0-1.75 1.75V114a1.75 1.75 0 0 0 3.5 0v-6.25a1.749 1.749 0 0 0-1.75-1.75ZM29.008 107.75H27.22l1.318-3.8a1.75 1.75 0 0 0-3.307-1.146l-2.123 6.125a1.749 1.749 0 0 0 1.653 2.323h1.788l-1.318 3.8a1.749 1.749 0 0 0 1.08 2.226 1.716 1.716 0 0 0 .573.1 1.751 1.751 0 0 0 1.654-1.177l2.123-6.125a1.749 1.749 0 0 0-1.653-2.323Z"  opacity="1" data-original="#000000"></path></g></svg>