<svg xmlns="http://www.w3.org/2000/svg" version="1.1" xmlns:xlink="http://www.w3.org/1999/xlink" width="40" height="40" x="0" y="0" viewBox="0 0 512.011 512.011" style="enable-background:new 0 0 512 512" xml:space="preserve" class=""><g><path d="m283.268 191.467-66.106 66.106h77.687l-62.97 62.97" style="stroke-width:30;stroke-linecap:round;stroke-linejoin:round;stroke-miterlimit:10;" fill="none" stroke="#fff" stroke-width="30" stroke-linecap="round" stroke-linejoin="round" stroke-miterlimit="10" data-original="#fff"></path><path d="M438.286 361.249c-13.012 22.522-14.337 48.59-5.865 71.178-22.588-8.472-48.656-7.147-71.178 5.854-22.533 13.012-36.705 34.926-40.659 58.73-15.32-18.645-38.56-30.53-64.584-30.53-26.012 0-49.253 11.885-64.573 30.53-3.954-23.803-18.126-45.718-40.659-58.73-22.522-13.001-48.59-14.326-71.178-5.854 8.472-22.588 7.147-48.656-5.865-71.178-13.001-22.533-34.915-36.716-58.719-40.67 18.634-15.32 30.519-38.56 30.519-64.573s-11.885-49.253-30.519-64.573c23.803-3.954 45.718-18.137 58.719-40.67 13.012-22.522 14.337-48.59 5.865-71.178 22.588 8.472 48.656 7.147 71.178-5.854 22.533-13.012 36.705-34.926 40.659-58.73 15.32 18.645 38.561 30.53 64.573 30.53 26.024 0 49.264-11.885 64.584-30.53 3.954 23.803 18.126 45.718 40.659 58.73 22.522 13.001 48.59 14.326 71.178 5.854-8.472 22.588-7.147 48.656 5.865 71.178 13.001 22.533 34.915 36.716 58.719 40.67-18.634 15.32-30.519 38.56-30.519 64.573s11.885 49.253 30.519 64.573c-23.803 3.954-45.718 18.136-58.719 40.67z" style="stroke-width:30;stroke-linecap:round;stroke-linejoin:round;stroke-miterlimit:10;" fill="none" stroke="#fff" stroke-width="30" stroke-linecap="round" stroke-linejoin="round" stroke-miterlimit="10" data-original="#fff"></path><circle cx="256.005" cy="256.005" r="150.181" style="stroke-width:30;stroke-linecap:round;stroke-linejoin:round;stroke-miterlimit:10;" fill="none" stroke="#fff" stroke-width="30" stroke-linecap="round" stroke-linejoin="round" stroke-miterlimit="10" data-original="#fff"></circle></g></svg>