<svg data-src="images/resource/sun-energy2.svg" xmlns="http://www.w3.org/2000/svg" version="1.1" xmlns:xlink="http://www.w3.org/1999/xlink" width="40" height="40" x="0" y="0" xml:space="preserve" class="" data-attributes-set="xmlns,version,xmlns:xlink,width,height,x,y,viewBox,style,xml:space,class" data-rendered="true"><g><defs><clipPath id="a" clipPathUnits="userSpaceOnUse"><path d="M0 512h512V0H0Z" opacity="1" data-original="#000000"></path></clipPath></defs><g clip-path="url(#a)" transform="matrix(1.33333 0 0 -1.33333 0 682.667)"><path d="m0 0 40.476 34.839c3.253 2.801 8.282 1.734 10.118-2.149l22.885-48.394a6.5 6.5 0 0 1 7.741-3.449l51.091 15.292c4.107 1.229 8.259-1.784 8.364-6.07l1.312-53.616a6.501 6.501 0 0 1 5.658-6.287l52.912-6.912c4.241-.554 6.801-4.983 5.164-8.935l-20.525-49.553a6.502 6.502 0 0 1 2.608-8.03l45.584-27.961c3.64-2.233 4.175-7.312 1.079-10.254l-38.814-36.882a6.504 6.504 0 0 1-.882-8.393l30.336-44.188c2.419-3.524.838-8.383-3.191-9.808l-50.352-17.822a6.5 6.5 0 0 1-4.221-7.318l9.817-52.742c.783-4.21-2.646-8.014-6.915-7.67l-53.159 4.288a6.5 6.5 0 0 1-6.849-4.979l-12.375-52.143c-.99-4.176-5.683-6.262-9.447-4.201l-46.801 25.623a6.5 6.5 0 0 1-8.295-1.765L.932-442.019c-2.602-3.418-7.744-3.418-10.346 0l-32.388 42.54a6.5 6.5 0 0 1-8.295 1.765l-46.8-25.623c-3.764-2.061-8.457.025-9.448 4.201l-12.375 52.143a6.499 6.499 0 0 1-6.848 4.979l-53.16-4.288c-4.268-.344-7.698 3.46-6.915 7.67l9.818 52.742a6.5 6.5 0 0 1-4.222 7.318l-50.351 17.822c-4.03 1.425-5.611 6.284-3.192 9.808l30.336 44.188a6.501 6.501 0 0 1-.882 8.393l-38.813 36.882c-3.097 2.942-2.562 8.021 1.079 10.254l45.584 27.961a6.501 6.501 0 0 1 2.607 8.03l-20.524 49.553c-1.638 3.952.923 8.381 5.164 8.935l52.912 6.912a6.5 6.5 0 0 1 5.657 6.287l1.313 53.616c.104 4.286 4.257 7.299 8.364 6.07l51.091-15.292a6.5 6.5 0 0 1 7.741 3.449l22.885 48.394c1.836 3.883 6.864 4.95 10.118 2.149L-8.482 0A6.5 6.5 0 0 1 0 0Z" style="stroke-width:30;stroke-linecap:round;stroke-linejoin:round;stroke-miterlimit:10;stroke-dasharray:none;stroke-opacity:1" transform="translate(260.241 460.084)" fill="none" stroke-width="30" stroke-linecap="round" stroke-linejoin="round" stroke-miterlimit="10" stroke-dasharray="none" stroke-opacity="" data-original="#000000"></path><path d="M0 0c0-74.8-60.638-135.438-135.437-135.438-74.8 0-135.438 60.638-135.438 135.438 0 74.8 60.638 135.437 135.438 135.437C-60.638 135.437 0 74.8 0 0Z" style="stroke-width:30;stroke-linecap:round;stroke-linejoin:round;stroke-miterlimit:10;stroke-dasharray:none;stroke-opacity:1" transform="translate(391.438 256.506)" fill="none" stroke-width="30" stroke-linecap="round" stroke-linejoin="round" stroke-miterlimit="10" stroke-dasharray="none" stroke-opacity="" data-original="#000000"></path><path d="m0 0-34.009-52.991h45.082l-38.602-60.901" style="stroke-width:30;stroke-linecap:round;stroke-linejoin:round;stroke-miterlimit:10;stroke-dasharray:none;stroke-opacity:1" transform="translate(267.468 312.946)" fill="none" stroke-width="30" stroke-linecap="round" stroke-linejoin="round" stroke-miterlimit="10" stroke-dasharray="none" stroke-opacity="" data-original="#000000"></path></g></g></svg>